<svg xmlns="http://www.w3.org/2000/svg" viewBox="0 0 64 64">
  <rect width="64" height="64" rx="14" fill="#10131a"/>
  <path d="M14 40l4-13c1-3 3-5 7-5h14c4 0 6 2 7 5l4 13v8H14z" fill="#ffc21a"/>
  <path d="M21 33l2-7h18l2 7z" fill="#182635"/>
  <rect x="27" y="15" width="10" height="6" rx="2" fill="#fff6cf"/>
  <circle cx="22" cy="48" r="5" fill="#10131a" stroke="#b8bcc4" stroke-width="2"/>
  <circle cx="42" cy="48" r="5" fill="#10131a" stroke="#b8bcc4" stroke-width="2"/>
  <path d="M14 40h4v3h-4zM22 40h4v3h-4zM30 40h4v3h-4zM38 40h4v3h-4zM46 40h4v3h-4z" fill="#10131a"/>
</svg>
